<?xml version="1.0" encoding="UTF-8" standalone="no"?>
<!-- Created with Inkscape (http://www.inkscape.org/) -->

<svg
   width="147.34991mm"
   height="132.42395mm"
   viewBox="0 0 147.34991 132.42395"
   version="1.1"
   id="svg1"
   xml:space="preserve"
   xmlns="http://www.w3.org/2000/svg"
   xmlns:svg="http://www.w3.org/2000/svg"><defs
     id="defs1" /><g
     id="layer1"
     transform="translate(-32.522059,-53.155437)"><g
       style="clip-rule:evenodd;fill-rule:evenodd;image-rendering:optimizeQuality;shape-rendering:geometricPrecision;text-rendering:geometricPrecision"
       id="g16"
       transform="matrix(0.26458333,0,0,0.26458333,-24.495649,-10.476854)"><g
         id="g3"><path
           style="opacity:1"
           fill="#d23424"
           d="m 523.5,336.5 -80,183 -1,-1 -178,-278 z"
           id="path3" /></g><g
         id="g4"><path
           style="opacity:1"
           fill="#a21e15"
           d="M 442.5,518.5 317.06538,330.33198 322.45583,330.5 Z"
           id="path4" /></g><g
         id="g5"><path
           style="opacity:1"
           fill="#b4251a"
           d="M 317.06538,330.33198 442.5,518.5 215.5,323 c 0,0 66.86738,4.93998 101.56538,7.33198 z"
           id="path5" /></g><g
         id="g6"><path
           style="opacity:1"
           fill="#d13323"
           d="M 710.5,395.5 772.41306,466.6734 741.5,466.5 l -58,-1 z"
           id="path6" /></g><g
         id="g8"><path
           style="opacity:1"
           fill="#b2231a"
           d="m 523.5,336.5 50,111 61,124 1,-1 -53.75764,-125.26222 c 0,0 14.2283,-5.57786 14.10538,-5.65084 C 596.04119,439.70058 710.5,395.5 710.5,395.5 l -27,70 c -14.8479,39.02744 -42.30615,118.00047 -42.30615,118.00047 L 443.49609,519.50391 Z"
           id="path8" /></g><g
         id="g9"><path
           style="opacity:1"
           fill="#951a13"
           d="m 581.74236,445.23778 c 0,0 36.38259,83.70222 53.75759,125.26222 l -1,1 c -21.461,-40.677 -41.794,-82.01 -61,-124 z"
           id="path9" /></g><g
         id="g10"><path
           style="opacity:1"
           fill="#a01f17"
           d="M 443.5,519.5 641.19776,583.50047 434.5,667.5 v 0 z"
           id="path10" /></g><g
         id="g12"><path
           style="opacity:1"
           fill="#d23323"
           d="M 434.08844,681.39348 310.5,741 l 5,-31.5 128,-190 z"
           id="path12" /></g><g
         id="g13"><path
           style="opacity:1"
           fill="#d03222"
           d="m 312,647.5 c 0,0 -34.314,20.153 -51.5,30 l -27,-14 c 25.69187,-16.06876 78.5,-46 78.5,-46 z"
           id="path13" /></g><g
         id="g15"><path
           style="opacity:1"
           fill="#b5261b"
           d="m 260.5,677.5 55,32 -5,31.5 v 0 c -25.564,-15.274 -52.897,-29.774 -78,-45.5 l 1,-32 v 0 z"
           id="path15" /></g></g></g></svg>
